# xmcd
#
# Track frame offsets:
# 150
# 19482
# 34510
# 53082
# 69812
# 84427
# 105610
# 123340
# 141842
# 157622
# 174067
#
# Disc length: 2609 seconds
#
#
# Revision: 0
# Processed by: cddbd v1.5.2PL0 Copyright (c) Steve Scherf et al.
# Submitted via: FreeRIP 2.951 
#
DISCID=790a2f0b
DTITLE=Nightlife - Åsså flög dom till Månen
DYEAR=1993
DGENRE=Dansband
TTITLE0=Time out
TTITLE1=Turn it up a little louder
TTITLE2=How do you keep the music playing
TTITLE3=Knock on wood
TTITLE4=Lucille
TTITLE5=Om mina känslor stämmer
TTITLE6=Heartache tonight
TTITLE7=I'll be over you
TTITLE8=You to me are everything
TTITLE9=I'll be your baby tonight
TTITLE10=Everytime you go away
EXTD=
EXTT0=
EXTT1=
EXTT2=
EXTT3=
EXTT4=
EXTT5=
EXTT6=
EXTT7=
EXTT8=
EXTT9=
EXTT10=
PLAYORDER=
